<svg width="26" height="15" viewBox="0 0 26 15" fill="none" xmlns="http://www.w3.org/2000/svg">
<path d="M0 15V0.849056H6.77409C8.51713 0.849056 9.82441 1.18598 10.6959 1.85984C11.5807 2.53369 12.023 3.42318 12.023 4.5283C12.023 5.26954 11.8448 5.91644 11.4882 6.469C11.1317 7.00809 10.6431 7.42588 10.0225 7.72237C9.40186 8.01887 8.6888 8.16712 7.8833 8.16712L8.25964 7.33828C9.13116 7.33828 9.90364 7.48652 10.5771 7.78302C11.2505 8.06604 11.7721 8.49057 12.1419 9.0566C12.5248 9.62264 12.7163 10.3167 12.7163 11.1388C12.7163 12.3518 12.2475 13.3019 11.31 13.9892C10.3724 14.6631 8.99251 15 7.17024 15H0ZM3.18897 12.5337H6.93255C7.76446 12.5337 8.39169 12.3989 8.81424 12.1294C9.25 11.8464 9.46788 11.4016 9.46788 10.7951C9.46788 10.2022 9.25 9.76415 8.81424 9.48113C8.39169 9.18464 7.76446 9.03639 6.93255 9.03639H2.95129V6.65094H6.37795C7.15703 6.65094 7.75125 6.51617 8.1606 6.24663C8.58316 5.96361 8.79443 5.53908 8.79443 4.97305C8.79443 4.42049 8.58316 4.00943 8.1606 3.73989C7.75125 3.45687 7.15703 3.31536 6.37795 3.31536H3.18897V12.5337Z" fill="#1E1E1E"/>
<path d="M21.583 3.96226C22.4281 3.96226 23.1808 4.13747 23.841 4.48787C24.5145 4.8248 25.0426 5.3504 25.4256 6.06469C25.8085 6.7655 26 7.66846 26 8.77359V15H22.9101V9.25876C22.9101 8.38275 22.7186 7.73585 22.3357 7.31806C21.9659 6.90027 21.4377 6.69138 20.7511 6.69138C20.2625 6.69138 19.8201 6.79919 19.424 7.01483C19.041 7.21698 18.7373 7.53369 18.5128 7.96496C18.3016 8.39623 18.1959 8.94879 18.1959 9.62264V15H15.106V0H18.1959V7.13612L17.5027 6.22642C17.8856 5.49865 18.4336 4.93935 19.1467 4.54852C19.8597 4.15768 20.6718 3.96226 21.583 3.96226Z" fill="#1E1E1E"/>
</svg>
