<svg width="25" height="20" viewBox="0 0 25 20" fill="none" xmlns="http://www.w3.org/2000/svg">
<path d="M0.333201 8.20817L24.3767 0.0248987C24.7379 -0.0983593 25.0823 0.256012 24.9825 0.64747L20.7759 17.1353C20.7015 17.4265 20.4094 17.5859 20.1457 17.4788L11.6512 14.037C11.3173 13.9016 11.2345 13.4354 11.4992 13.1786L18.1628 6.71033C18.5725 6.31297 18.1304 5.61167 17.633 5.87092L6.47809 11.6832C6.35593 11.7469 6.2146 11.7517 6.08889 11.6967L0.297552 9.17025C-0.116332 8.98936 -0.0928918 8.35309 0.333241 8.20832L0.333201 8.20817ZM13.6986 9.60227C13.9078 9.40768 13.6755 9.05693 13.4346 9.20377L8.11868 12.3138C7.63927 12.6062 7.41414 13.2162 7.57714 13.7809L9.21918 19.7033C9.30262 20.0033 9.65419 20.1001 9.86213 19.8804L13.1395 16.5569C13.2734 16.4152 13.2307 16.1731 13.0576 16.0941L9.65691 14.2783C9.47012 14.1784 9.43337 13.9104 9.58482 13.7573L13.6983 9.60224L13.6986 9.60227Z" fill="#1E1E1E"/>
</svg>
